# xmcd CD database file
#
# Track frame offsets:
#	150
#	19712
#	34225
#	76395
#	88635
#	100955
#	121432
#	138220
#	163192
#	179575
#	196997
#	211555
#	223410
#	250590
#	266262
#
# Disc length: 3689 seconds
#
# Revision: 0
# Processed by: cddbd v1.5PL3 Copyright (c) Steve Scherf et al.
# Submitted via: CDex 1.51
#
DISCID=cd0e670f
DTITLE=Joseph Haydn - Divertimenti Vol. 3, No. 7-9
DYEAR=1900
DGENRE=Classical
TTITLE0=Divertimento no 7 H. III: 7 a major - 1. Presto
TTITLE1=Divertimento no 7 H. III: 7 a major - 2. Menuetto - Trio
TTITLE2=Divertimento no 7 H. III: 7 a major - 3. Adagio
TTITLE3=Divertimento no 7 H. III: 7 a major - 4. Menuetto - Trio
TTITLE4=Divertimento no 7 H. III: 7 a major - 5. Finale - Allegro molto
TTITLE5=Divertimento no 8 H. III: 8 e major - 1. Allegro
TTITLE6=Divertimento no 8 H. III: 8 e major - 2. Menuetto - Trio
TTITLE7=Divertimento no 8 H. III: 8 e major - 3. Adagio
TTITLE8=Divertimento no 8 H. III: 8 e major - 4. Menuetto - Trio
TTITLE9=Divertimento no 8 H. III: 8 e major - 5. Finale - Presto
TTITLE10=Divertimento no 9 H. III: 9 e flat major - 1. Allegro molto
TTITLE11=Divertimento no 9 H. III: 9 e flat major - 2. Menuetto - Trio
TTITLE12=Divertimento no 9 H. III: 9 e flat major - 3. Adagio
TTITLE13=Divertimento no 9 H. III: 9 e flat major - 4. Menuetto - Trio
TTITLE14=Divertimento no 9 H. III: 9 e flat major - 5. Finale - Allegro
EXTD=
EXTT0=
EXTT1=
EXTT2=
EXTT3=
EXTT4=
EXTT5=
EXTT6=
EXTT7=
EXTT8=
EXTT9=
EXTT10=
EXTT11=
EXTT12=
EXTT13=
EXTT14=
PLAYORDER=
